<svg width="40" height="40" viewBox="0 0 40 40" fill="none" xmlns="http://www.w3.org/2000/svg">
<rect x="0.734375" width="39.1837" height="40" rx="19.5918" fill="#FF3E79"/>
<path fill-rule="evenodd" clip-rule="evenodd" d="M13.2344 23.25L15.7226 22.96C16.3201 22.89 16.9079 23.1 17.3291 23.53L19.1316 25.37C21.9038 23.93 24.1765 21.62 25.5871 18.78L23.7748 16.93C23.3536 16.5 23.1479 15.9 23.2165 15.29L23.5006 12.77C23.6181 11.76 24.4508 11 25.4499 11H27.1446C28.2516 11 29.1724 11.94 29.1038 13.07C28.5846 21.61 21.894 28.43 13.5381 28.96C12.4312 29.03 11.5104 28.09 11.5104 26.96V25.23C11.5006 24.22 12.245 23.37 13.2344 23.25Z" fill="white"/>
</svg>
