<svg width="40" height="40" viewBox="0 0 40 40" fill="none" xmlns="http://www.w3.org/2000/svg">
<rect x="0.591797" width="39.1837" height="40" rx="19.5918" fill="#FF3E79"/>
<path fill-rule="evenodd" clip-rule="evenodd" d="M28.0203 11H12.3469C11.2693 11 10.3975 11.9 10.3975 13L10.3877 31L14.3061 26H28.0203C29.0979 26 29.9795 25.1 29.9795 24V13C29.9795 11.9 29.0979 11 28.0203 11ZM21.1632 22H15.2857C14.7469 22 14.3061 21.55 14.3061 21C14.3061 20.45 14.7469 20 15.2857 20H21.1632C21.702 20 22.1428 20.45 22.1428 21C22.1428 21.55 21.702 22 21.1632 22ZM25.0816 17H15.2857C14.7469 17 14.3061 16.55 14.3061 16C14.3061 15.45 14.7469 15 15.2857 15H25.0816C25.6203 15 26.0612 15.45 26.0612 16C26.0612 16.55 25.6203 17 25.0816 17Z" fill="white"/>
<mask id="mask0_1227_145" style="mask-type:alpha" maskUnits="userSpaceOnUse" x="10" y="11" width="20" height="20">
<path fill-rule="evenodd" clip-rule="evenodd" d="M28.0203 11H12.3469C11.2693 11 10.3975 11.9 10.3975 13L10.3877 31L14.3061 26H28.0203C29.0979 26 29.9795 25.1 29.9795 24V13C29.9795 11.9 29.0979 11 28.0203 11ZM21.1632 22H15.2857C14.7469 22 14.3061 21.55 14.3061 21C14.3061 20.45 14.7469 20 15.2857 20H21.1632C21.702 20 22.1428 20.45 22.1428 21C22.1428 21.55 21.702 22 21.1632 22ZM25.0816 17H15.2857C14.7469 17 14.3061 16.55 14.3061 16C14.3061 15.45 14.7469 15 15.2857 15H25.0816C25.6203 15 26.0612 15.45 26.0612 16C26.0612 16.55 25.6203 17 25.0816 17Z" fill="white"/>
</mask>
<g mask="url(#mask0_1227_145)">
</g>
</svg>
